<?xml version="1.0" encoding="UTF-8"?>
<svg width="80px" height="80px" viewBox="0 0 80 80" version="1.1" xmlns="http://www.w3.org/2000/svg" xmlns:xlink="http://www.w3.org/1999/xlink">
    <!-- Generator: Sketch 51.3 (57544) - http://www.bohemiancoding.com/sketch -->
    <title>icon_AnyDevice_v2</title>
    <desc>Created with Sketch.</desc>
    <defs></defs>
    <g id="icon_AnyDevice_v2" stroke="none" stroke-width="1" fill="none" fill-rule="evenodd">
        <rect fill="#FFFFFF" x="0" y="0" width="80" height="80"></rect>
        <g id="Group-5" transform="translate(5.000000, 8.000000)" stroke="#005B89">
            <path d="M47,27 L49,27" id="Stroke-2" stroke-linecap="round"></path>
            <path d="M48,59.9992476 C48,59.447705 48.4480422,59 49,59 C49.5519578,59 50,59.447705 50,59.9992476 C50,60.552295 49.5519578,61 49,61 C48.4480422,61 48,60.552295 48,59.9992476 Z" id="Stroke-3"></path>
            <path d="M46.3184242,27.1580323 C46.3184242,27.2455806 46.2474141,27.3160645 46.1592121,27.3160645 C46.0717576,27.3160645 46,27.2455806 46,27.1580323 C46,27.0704839 46.0717576,27 46.1592121,27 C46.2474141,27 46.3184242,27.0704839 46.3184242,27.1580323 Z" id="Stroke-5" stroke-linecap="round"></path>
            <path d="M57,60.2491622 C57,61.2163389 56.2289522,62 55.2773426,62 L41.7226574,62 C40.7710478,62 40,61.2163389 40,60.2491622 L40,26.7508378 C40,25.7836611 40.7710478,25 41.7226574,25 L55.2773426,25 C56.2289522,25 57,25.7836611 57,26.7508378 L57,60.2491622 Z" id="Stroke-7" stroke-linecap="round"></path>
            <path d="M60,57 L67,59" id="Stroke-9"></path>
            <path d="M54,60 L58,62" id="Stroke-11"></path>
            <path d="M71,59 C71,60.1047424 70.1047424,61 69,61 C67.8952576,61 67,60.1047424 67,59 C67,57.8952576 67.8952576,57 69,57 C70.1047424,57 71,57.8952576 71,59 Z" id="Stroke-13"></path>
            <path d="M61,62 C61,63.1047424 60.1047424,64 59,64 C57.8952576,64 57,63.1047424 57,62 C57,60.8952576 57.8952576,60 59,60 C60.1047424,60 61,60.8952576 61,62 Z" id="Stroke-15"></path>
            <path d="M16.5832924,19 L2.40953208,19 C1.07991238,19 0,20.1092535 0,21.4787465 L0.00358774878,52.8103041 L0.00358774878,55.5205346 C0.00358774878,56.8900276 1.08350013,58 2.41311983,58 L16.5868802,58 C17.9208052,58 19,56.8900276 19,55.5205346 L18.9964123,21.4787465 C18.9964123,20.1092535 17.9172174,19 16.5832924,19 Z" id="Stroke-17"></path>
            <path d="M2,24 L18,24" id="Stroke-19"></path>
            <path d="M2,52 L18,52" id="Stroke-21"></path>
            <path d="M12,55 C12,55.5519943 11.5534063,56 11.0015645,56 L7.99772436,56 C7.44659366,56 7,55.5519943 7,55 C7,54.4480057 7.44659366,54 7.99772436,54 L11.0015645,54 C11.5534063,54 12,54.4480057 12,55 Z" id="Stroke-23" stroke-linecap="round"></path>
            <path d="M8,21 L12,21" id="Stroke-25" stroke-linecap="round"></path>
            <path d="M7.20854545,21.103129 C7.20854545,21.1602581 7.16220202,21.2062581 7.10464646,21.2062581 C7.04709091,21.2062581 7,21.1602581 7,21.103129 C7,21.046 7.04709091,21 7.10464646,21 C7.16220202,21 7.20854545,21.046 7.20854545,21.103129 Z" id="Stroke-27" stroke-linecap="round"></path>
            <path d="M6.20854545,21.103129 C6.20854545,21.1602581 6.16220202,21.2062581 6.10464646,21.2062581 C6.04709091,21.2062581 6,21.1602581 6,21.103129 C6,21.046 6.04709091,21 6.10464646,21 C6.16220202,21 6.20854545,21.046 6.20854545,21.103129 Z" id="Stroke-29" stroke-linecap="round"></path>
            <path d="M5.20854545,21.103129 C5.20854545,21.1602581 5.16220202,21.2062581 5.10464646,21.2062581 C5.04709091,21.2062581 5,21.1602581 5,21.103129 C5,21.046 5.04709091,21 5.10464646,21 C5.16220202,21 5.20854545,21.046 5.20854545,21.103129 Z" id="Stroke-31" stroke-linecap="round"></path>
            <path d="M15.4514747,21.2240645 C15.4514747,21.3479677 15.3505657,21.448129 15.2257374,21.448129 C15.1009091,21.448129 15,21.3479677 15,21.2240645 C15,21.1001613 15.1009091,21 15.2257374,21 C15.3505657,21 15.4514747,21.1001613 15.4514747,21.2240645 Z" id="Stroke-33" stroke-linecap="round"></path>
            <path d="M42,2.5 C42,3.8808615 37.2991937,5 31.5,5 C25.7015361,5 21,3.8808615 21,2.5 C21,1.1191385 25.7015361,0 31.5,0 C37.2991937,0 42,1.1191385 42,2.5 Z" id="Stroke-35"></path>
            <path d="M37,59.2653196 C35.3697978,59.7295524 33.4217528,60 31.3313258,60 C25.6216629,60 21,58.011749 21,55.5493275 C21,55.5358406 21.0050337,54.2851094 21.0050337,54.2851094 L21.0050337,2" id="Stroke-37"></path>
            <path d="M42,2 L42,22" id="Stroke-39"></path>
            <path d="M32.4635191,31.2104336 C32.2641193,31.5550553 31.9467646,31.7674464 31.5943043,31.7674464 C31.1133575,31.7674464 30.8318105,31.4091221 30.8318105,30.8788294 C30.8318105,29.8360576 31.7901936,29.6462758 32.6980246,29.6462758 L32.6980246,29.9114221 C32.6980246,30.3882744 32.7099605,30.7863365 32.4635191,31.2104336 Z M34.4596239,30.6260155 L34.4596239,28.7179211 C34.4596239,27.9094646 34.5186013,27.1667809 33.9077637,26.6104532 C33.4268169,26.1596359 32.6278133,26 32.0169758,26 C30.8226831,26 29.4900743,26.4350592 29.2106336,27.8758931 C29.1804428,28.0286777 29.2948871,28.1088382 29.3980976,28.1314476 L30.6141558,28.2602525 C30.7286,28.2540863 30.8107472,28.1451502 30.8325126,28.0348439 C30.9371273,27.5388079 31.3626073,27.2990115 31.8407457,27.2990115 C32.0991229,27.2990115 32.3933079,27.3921895 32.5456662,27.6175981 C32.7218964,27.8697269 32.6980246,28.2143486 32.6980246,28.5062151 L32.6980246,28.6651659 C31.9706364,28.7446413 31.0192745,28.7973965 30.3382257,29.089263 C29.5518601,29.4208672 29,30.0970931 29,31.0912205 C29,32.3635118 29.8214712,33 30.8781499,33 C31.7705344,33 32.2592045,32.7951453 32.9479765,32.1100127 C33.1754608,32.4313399 33.2505868,32.5875502 33.6676414,32.9260057 C33.7610223,32.9753352 33.8803814,32.9705393 33.9639327,32.8972301 L33.9667412,32.8999706 C34.2173952,32.6827836 34.673066,32.2963688 34.9293369,32.0867182 C35.0318453,32.0051874 35.0135903,31.8729568 34.9335496,31.7619654 C34.7039589,31.4522854 34.4596239,31.2001566 34.4596239,30.6260155 Z" id="Stroke-41"></path>
            <path d="M36,33.6878154 C34.9045135,34.5443403 33.3163983,35 31.9487412,35 C30.03198,35 28.3064187,34.2494593 27,33" id="Stroke-43"></path>
            <path d="M35,33.322745 C35.7015805,32.8504493 36.8253243,32.9912298 36.9574401,33.1532029 C37.0903152,33.3182037 36.9247908,34.4482315 36.2801567,35" id="Stroke-45"></path>
        </g>
    </g>
</svg>