<?xml version="1.0" encoding="UTF-8"?>
<svg width="53px" height="16px" viewBox="0 0 53 16" version="1.1" xmlns="http://www.w3.org/2000/svg" xmlns:xlink="http://www.w3.org/1999/xlink">
    <!-- Generator: Sketch 47 (45396) - http://www.bohemiancoding.com/sketch -->
    <title>AMZ_Logo_HEX_FFF</title>
    <desc>Created with Sketch.</desc>
    <defs>
        <polygon id="path-1" points="14.6700234 0.0301395349 0.0111578947 0.0301395349 0.0111578947 9.40372093 29.3288889 9.40372093 29.3288889 0.0301395349"></polygon>
    </defs>
    <g id="Page-1" stroke="none" stroke-width="1" fill="none" fill-rule="evenodd">
        <g id="AMZ_Logo_HEX_FFF">
            <path d="M32.8620456,12.5192558 C29.7845123,14.7914419 25.3224702,16 21.4804351,16 C16.0954491,16 11.2466,14.0087442 7.57676842,10.6935814 C7.28870877,10.4334884 7.54571228,10.0777674 7.89197895,10.2794419 C11.850986,12.5843721 16.7468842,13.9724651 21.8036421,13.9724651 C25.2147965,13.9724651 28.964593,13.264186 32.4148,11.800186 C32.9351298,11.5791628 33.3714035,12.1432558 32.8620456,12.5192558" id="Fill-1" fill="#FFFFFF"></path>
            <path d="M34.1429719,11.0567442 C33.7490982,10.5523721 31.5405789,10.8176744 30.5486421,10.9363721 C30.2481228,10.9724651 30.2014456,10.7099535 30.4723965,10.5196279 C32.2340421,9.28167442 35.1205895,9.63925581 35.4560702,10.0533953 C35.7943404,10.4716279 35.3677368,13.3670698 33.7165544,14.7488372 C33.4625263,14.9614884 33.2211439,14.848186 33.3336526,14.5672558 C33.7050246,13.6390698 34.5368456,11.5611163 34.1429719,11.0567442" id="Fill-2" fill="#FFFFFF"></path>
            <path d="M30.6185649,1.77451163 L30.6185649,0.57172093 C30.6193088,0.388651163 30.7572947,0.266604651 30.9233614,0.266976744 L36.3122526,0.266418605 C36.4844561,0.266418605 36.622814,0.391813953 36.623186,0.570232558 L36.622814,1.60186047 C36.6215123,1.77488372 36.4759018,2.00074419 36.2170386,2.35906977 L33.4257053,6.34623256 C34.4619018,6.32204651 35.5579789,6.47702326 36.4995193,7.00651163 C36.7117053,7.12576744 36.7686105,7.30269767 36.7853474,7.47609302 L36.7853474,8.75944186 C36.7853474,8.93637209 36.5919439,9.14102326 36.3886842,9.03460465 C34.7298772,8.16539535 32.5287965,8.07013953 30.6948105,9.04502326 C30.5073579,9.14493023 30.3111649,8.94325581 30.3111649,8.76632558 L30.3111649,7.54623256 C30.3111649,7.35106977 30.3148842,7.01711628 30.5116351,6.71944186 L33.7457509,2.07776744 L30.9298702,2.07739535 C30.7578526,2.07739535 30.6196807,1.95460465 30.6185649,1.77451163" id="Fill-3" fill="#FFFFFF"></path>
            <path d="M10.9613298,9.28744186 L9.32204912,9.28744186 C9.16602456,9.2772093 9.04124211,9.15981395 9.02878246,9.01023256 L9.02989825,0.592186047 C9.02989825,0.423813953 9.17141754,0.289116279 9.34622456,0.289116279 L10.8729965,0.288744186 C11.0327404,0.296930233 11.1610561,0.417860465 11.1710982,0.571348837 L11.1710982,1.67051163 L11.2017825,1.67051163 C11.5997474,0.607627907 12.3495579,0.111627907 13.3595333,0.111627907 C14.3847579,0.111627907 15.0276386,0.607627907 15.486786,1.67051163 C15.8845649,0.607627907 16.7874246,0.111627907 17.7516526,0.111627907 C18.4402807,0.111627907 19.1900912,0.394976744 19.6492386,1.03274419 C20.1695684,1.7412093 20.0626386,2.76874419 20.0626386,3.67218605 L20.0613368,8.98437209 C20.0613368,9.15255814 19.9196316,9.28744186 19.7451965,9.28744186 L18.1075895,9.28744186 C17.9430105,9.27683721 17.813207,9.1464186 17.813207,8.98511628 L17.8128351,4.5224186 C17.8128351,4.16818605 17.8435193,3.2824186 17.7669018,2.94586047 C17.6445368,2.37897674 17.2772561,2.21953488 16.8028596,2.21953488 C16.4050807,2.21953488 15.9916807,2.4852093 15.8233825,2.91051163 C15.6550842,3.33562791 15.6705193,4.04409302 15.6705193,4.5224186 L15.6705193,8.98437209 C15.6705193,9.15255814 15.528814,9.28744186 15.354193,9.28744186 L13.7167719,9.28744186 C13.552193,9.27683721 13.4223895,9.1464186 13.4223895,8.98511628 L13.4207158,4.5224186 C13.4207158,3.58362791 13.5737649,2.20186047 12.4107404,2.20186047 C11.2322807,2.20186047 11.278214,3.54809302 11.278214,4.5224186 L11.2776561,8.98437209 C11.2778421,9.15255814 11.1361368,9.28744186 10.9613298,9.28744186" id="Fill-4" fill="#FFFFFF"></path>
            <path d="M41.2773298,1.82976744 C40.068186,1.82976744 39.9917544,3.4772093 39.9917544,4.50455814 C39.9917544,5.53209302 39.9765053,7.72874419 41.2620807,7.72874419 C42.532407,7.72874419 42.5934035,5.9572093 42.5934035,4.87665116 C42.5934035,4.16818605 42.5629053,3.31776744 42.3486737,2.64465116 C42.1647544,2.06009302 41.7974737,1.82976744 41.2773298,1.82976744 Z M41.2620807,0.111627907 C43.6954316,0.111627907 45.0113193,2.20186047 45.0113193,4.85897674 C45.0113193,7.42734884 43.5578175,9.46474419 41.2620807,9.46474419 C38.8746632,9.46474419 37.5738386,7.37432558 37.5738386,4.7704186 C37.5738386,2.14865116 38.8899123,0.111627907 41.2620807,0.111627907 L41.2620807,0.111627907 Z" id="Fill-5" fill="#FFFFFF"></path>
            <path d="M48.1669579,9.28744186 L46.5336281,9.28744186 C46.3694211,9.27683721 46.2394316,9.1464186 46.2394316,8.98511628 L46.2368281,0.563906977 C46.2505895,0.410046512 46.3865298,0.289116279 46.5516667,0.289116279 L48.0724877,0.288744186 C48.2154947,0.296 48.3335825,0.393860465 48.3637088,0.524465116 L48.3637088,1.81209302 L48.3945789,1.81209302 C48.8537263,0.660651163 49.4962351,0.111627907 50.6287614,0.111627907 C51.3631368,0.111627907 52.0826351,0.377302326 52.5417825,1.10362791 C52.9704316,1.77674419 52.9704316,2.91051163 52.9704316,3.7252093 L52.9704316,9.02213953 C52.9518351,9.17153488 52.8181263,9.28744186 52.6561509,9.28744186 L51.012593,9.28744186 C50.8608456,9.2775814 50.7384807,9.16613953 50.7206281,9.02213953 L50.7206281,4.45153488 C50.7206281,3.5304186 50.8277439,2.18418605 49.6952175,2.18418605 C49.2972526,2.18418605 48.9299719,2.44986047 48.7466105,2.85730233 C48.5171298,3.37097674 48.4862596,3.88465116 48.4862596,4.45153488 L48.4862596,8.98437209 C48.4832842,9.15255814 48.3415789,9.28744186 48.1669579,9.28744186" id="Fill-6" fill="#FFFFFF"></path>
            <mask id="mask-2" fill="white">
                <use xlink:href="#path-1"></use>
            </mask>
            <g id="Clip-8"></g>
            <path d="M27.9756316,9.2664186 C27.8670281,9.36372093 27.7106316,9.37023256 27.5882667,9.30455814 C27.0437614,8.85172093 26.9461298,8.6424186 26.648586,8.21153488 C25.7485158,9.12855814 25.1110281,9.40372093 23.945586,9.40372093 C22.5653544,9.40372093 21.491593,8.55162791 21.491593,6.84744186 C21.491593,5.51590698 22.212393,4.61060465 23.2400351,4.16669767 C24.1295053,3.776 25.3719368,3.70511628 26.3227754,3.59851163 L26.3227754,3.38548837 C26.3227754,2.99497674 26.3534596,2.53339535 26.1234211,2.19609302 C25.9238807,1.89432558 25.540607,1.77004651 25.2030807,1.77004651 C24.5778667,1.77004651 24.0220175,2.09060465 23.8853333,2.75497674 C23.8570667,2.90269767 23.749207,3.04893023 23.6006211,3.05637209 L22.0115509,2.88427907 C21.8774702,2.85413953 21.7283263,2.7464186 21.767007,2.5415814 C22.1322421,0.612837209 23.8730596,0.0301395349 25.4333053,0.0301395349 C26.2307228,0.0301395349 27.273614,0.243162791 27.9023614,0.846883721 C28.6999649,1.59255814 28.6231614,2.58660465 28.6231614,3.6695814 L28.6231614,6.22493023 C28.6231614,6.99348837 28.9424632,7.3307907 29.2420526,7.74493023 C29.3467509,7.89413953 29.3703684,8.07162791 29.2366596,8.18065116 C28.9017368,8.46139535 28.3068351,8.97860465 27.9793509,9.26995349 L27.9756316,9.2664186 Z M26.3227754,5.26734884 C26.3227754,5.9064186 26.3380246,6.43906977 26.0159333,7.00725581 C25.7552105,7.46883721 25.3412526,7.75274419 24.8809895,7.75274419 C24.2522421,7.75274419 23.8842175,7.27330233 23.8842175,6.56334884 C23.8842175,5.16651163 25.1366912,4.91237209 26.3227754,4.91237209 L26.3227754,5.26734884 L26.3227754,5.26734884 Z" id="Fill-7" fill="#FFFFFF" mask="url(#mask-2)"></path>
            <path d="M6.48385263,9.2664186 C6.37524912,9.36372093 6.21866667,9.37023256 6.09648772,9.30455814 C5.55179649,8.85172093 5.45435088,8.6424186 5.15662105,8.21153488 C4.25692281,9.12855814 3.61943509,9.40372093 2.45380702,9.40372093 C1.07338947,9.40372093 0,8.55162791 0,6.84744186 C0,5.51590698 0.7208,4.61060465 1.74825614,4.16669767 C2.63791228,3.776 3.88015789,3.70511628 4.83099649,3.59851163 L4.83099649,3.38548837 C4.83099649,2.99497674 4.8616807,2.53339535 4.63164211,2.19609302 C4.43228772,1.89432558 4.04864211,1.77004651 3.71148772,1.77004651 C3.08627368,1.77004651 2.53005263,2.09060465 2.39374035,2.75497674 C2.36528772,2.90269767 2.25761404,3.04893023 2.10884211,3.05637209 L0.519957895,2.88427907 C0.385691228,2.85413953 0.236361404,2.7464186 0.27522807,2.5415814 C0.640277193,0.612837209 2.3812807,0.0301395349 3.94134035,0.0301395349 C4.73894386,0.0301395349 5.78183509,0.243162791 6.41076842,0.846883721 C7.20818596,1.59255814 7.13156842,2.58660465 7.13156842,3.6695814 L7.13156842,6.22493023 C7.13156842,6.99348837 7.45049825,7.3307907 7.75027368,7.74493023 C7.85478596,7.89413953 7.87840351,8.07162791 7.7448807,8.18065116 C7.41014386,8.46139535 6.81487018,8.97860465 6.48775789,9.26995349 L6.48385263,9.2664186 Z M4.83099649,5.26734884 C4.83099649,5.9064186 4.84624561,6.43906977 4.52415439,7.00725581 C4.26361754,7.46883721 3.84947368,7.75274419 3.38939649,7.75274419 C2.76064912,7.75274419 2.3924386,7.27330233 2.3924386,6.56334884 C2.3924386,5.16651163 3.64509825,4.91237209 4.83099649,4.91237209 L4.83099649,5.26734884 L4.83099649,5.26734884 Z" id="Fill-9" fill="#FFFFFF" mask="url(#mask-2)"></path>
        </g>
    </g>
</svg>