<?xml version="1.0" encoding="UTF-8"?>
<svg width="80px" height="80px" viewBox="0 0 80 80" version="1.1" xmlns="http://www.w3.org/2000/svg" xmlns:xlink="http://www.w3.org/1999/xlink">
    <!-- Generator: Sketch 51.3 (57544) - http://www.bohemiancoding.com/sketch -->
    <title>icon_Cancel.svg_v2</title>
    <desc>Created with Sketch.</desc>
    <defs></defs>
    <g id="icon_Cancel.svg_v2" stroke="none" stroke-width="1" fill="none" fill-rule="evenodd">
        <rect fill="#FFFFFF" x="0" y="0" width="80" height="80"></rect>
        <g id="Group-8" transform="translate(23.000000, 15.000000)" stroke="#005B89">
            <g id="Group-4">
                <path d="M3,8 L27,8" id="Stroke-1"></path>
                <path d="M3,42 L27,42" id="Stroke-2"></path>
                <path d="M17.8592604,45.9586957 C17.8592604,46.7652174 17.2015521,47.4188406 16.3899896,47.4188406 L11.9690521,47.4188406 C11.1574896,47.4188406 10.4997813,46.7652174 10.4997813,45.9586957 C10.4997813,45.1521739 11.1574896,44.4985507 11.9690521,44.4985507 L16.3899896,44.4985507 C17.2015521,44.4985507 17.8592604,45.1521739 17.8592604,45.9586957 Z" id="Stroke-3" stroke-linecap="round"></path>
                <path d="M8.03403125,3.30695652 L20.9293438,3.30695652" id="Stroke-5" stroke-linecap="round"></path>
                <path d="M34.969375,25.6854348 C34.969375,29.5086232 31.8507292,32.6086232 28.0029167,32.6086232 C24.1558333,32.6086232 21.0371875,29.5086232 21.0371875,25.6854348 C21.0371875,21.8622464 24.1558333,18.7622464 28.0029167,18.7622464 C31.8507292,18.7622464 34.969375,21.8622464 34.969375,25.6854348 Z" id="Stroke-7" stroke-width="1.029"></path>
                <path d="M25.1694479,23.0802174 L30.6381979,28.515" id="Stroke-9"></path>
                <path d="M30.6381979,23.0802174 L25.1694479,28.515" id="Stroke-11"></path>
                <path d="M28.1534167,15.8338406 L28.1847708,3.97949275 C28.1847708,1.9976087 26.6112292,0.392536232 24.6650833,0.392536232 L5.18247917,0.392536232 L3.99102083,0.392536232 C2.0514375,0.392536232 0.4764375,1.9976087 0.4764375,3.97949275 L0.364875,42.1628261 L0.364875,46.0505072 C0.364875,48.0316667 1.93914583,49.6374638 3.87872917,49.6374638 L7.7739375,49.6374638 L24.5527917,49.6374638 C26.4989375,49.6374638 28.0732083,48.0316667 28.0732083,46.0505072 L28.0994583,36.1236957" id="Stroke-13"></path>
            </g>
        </g>
    </g>
</svg>