<?xml version="1.0" encoding="UTF-8"?>
<svg width="80px" height="80px" viewBox="0 0 80 80" version="1.1" xmlns="http://www.w3.org/2000/svg" xmlns:xlink="http://www.w3.org/1999/xlink">
    <!-- Generator: Sketch 51.3 (57544) - http://www.bohemiancoding.com/sketch -->
    <title>icon_GetStarted_v2</title>
    <desc>Created with Sketch.</desc>
    <defs></defs>
    <g id="icon_GetStarted_v2" stroke="none" stroke-width="1" fill="none" fill-rule="evenodd">
        <rect fill="#FFFFFF" x="0" y="0" width="80" height="80"></rect>
        <g id="Group-7" transform="translate(21.000000, 19.000000)" stroke="#005B89">
            <path d="M35,39.4198431 C35,40.8451218 33.8810767,42 32.5,42 C31.1199277,42 30,40.8451218 30,39.4198431 L30,29.5801569 C30,28.1548782 31.1199277,27 32.5,27 C33.8810767,27 35,28.1548782 35,29.5801569 L35,39.4198431 Z" id="Stroke-1"></path>
            <path d="M9,39.4198431 C9,40.8451218 7.88107674,42 6.5,42 C5.11992768,42 4,40.8451218 4,39.4198431 L4,29.5801569 C4,28.1548782 5.11992768,27 6.5,27 C7.88107674,27 9,28.1548782 9,29.5801569 L9,39.4198431 Z" id="Stroke-3"></path>
            <path d="M0,36.030468 L0,19.9636404 C0,8.9375491 8.76566333,0 19.6435223,0 C30.5203524,0 39,8.9375491 39,19.9636404 L39,37" id="Stroke-5"></path>
        </g>
    </g>
</svg>